# xmcd CD database file
#
# Track frame offsets:
#	150
#	19055
#	39967
#	56395
#	72605
#	87535
#	106535
#	121700
#	135705
#	153755
#	171502
#	190702
#	206520
#	241067
#
# Disc length: 3986 seconds
#
# Revision: 1
# Processed by: cddbd v1.5.1PL0 Copyright (c) Steve Scherf et al.
# Submitted via: CDex 1.51
#
DISCID=af0f900e
DTITLE=Alabama - Twentieth Century
DYEAR=1999
DGENRE=Country
TTITLE0=Twentieth Century
TTITLE1=God Must Have Spent A Little More Time On You
TTITLE2=I'm In That Kind Of Mood
TTITLE3=We Made Love
TTITLE4=Life's Too Short To Love This Fast
TTITLE5=Then We Remember
TTITLE6=Little Things
TTITLE7=Mist Of Desire
TTITLE8=Small Stuff
TTITLE9=Too Much Love
TTITLE10=Write It Down In Blue
TTITLE11=I Love You Enough To Let You Go
TTITLE12=Alabama Jam (A Medley Of #1 Hits)
TTITLE13=Video
EXTD=YEAR: 1999
EXTT0=
EXTT1=
EXTT2=
EXTT3=
EXTT4=
EXTT5=
EXTT6=
EXTT7=
EXTT8=
EXTT9=
EXTT10=
EXTT11=
EXTT12=
EXTT13=
PLAYORDER=
